HIERARCHY
ROOT hip
{
	OFFSET 0.000000 0.000000 0.000000 
	CHANNELS 6 Xposition Yposition Zposition Xrotation Zrotation Yrotation
	JOINT abdomen
	{
		OFFSET 0.000000 3.402643 0.000000 
		CHANNELS 3 Xrotation Zrotation Yrotation
		JOINT chest
		{
			OFFSET 0.000000 8.438565 -0.680529 
			CHANNELS 3 Xrotation Zrotation Yrotation
			JOINT neck
			{
				OFFSET 0.000000 10.207942 -0.272212 
				CHANNELS 3 Xrotation Zrotation Yrotation
				JOINT head
				{
					OFFSET 0.000000 3.130431 0.000000 
					CHANNELS 3 Xrotation Zrotation Yrotation
					End Site
					{
						OFFSET 0.000000 3.130435 0.000000 
					}
				}
			}
			JOINT lCollar
			{
				OFFSET 3.470700 6.669187 -0.816635 
				CHANNELS 3 Yrotation Zrotation Xrotation
				JOINT lShldr
				{
					OFFSET 3.198488 0.000000 0.000000 
					CHANNELS 3 Zrotation Yrotation Xrotation
					JOINT lForeArm
					{
						OFFSET 10.139888 0.000000 0.000000 
						CHANNELS 3 Yrotation Zrotation Xrotation
						JOINT lHand
						{
							OFFSET 8.370511 0.000000 0.000000 
							CHANNELS 3 Zrotation Yrotation Xrotation
							End Site
							{
								OFFSET 4.083176 0.000000 0.000000 
							}
						}
					}
				}
			}
			JOINT rCollar
			{
				OFFSET -3.470700 6.669187 -0.816635 
				CHANNELS 3 Yrotation Zrotation Xrotation
				JOINT rShldr
				{
					OFFSET -3.198488 0.000000 0.000000 
					CHANNELS 3 Zrotation Yrotation Xrotation
					JOINT rForeArm
					{
						OFFSET -10.139888 0.000000 0.000000 
						CHANNELS 3 Yrotation Zrotation Xrotation
						JOINT rHand
						{
							OFFSET -8.370511 0.000000 0.000000 
							CHANNELS 3 Zrotation Yrotation Xrotation
							End Site
							{
								OFFSET -4.083176 0.000000 0.000000 
							}
						}
					}
				}
			}
		}
	}
	JOINT lThigh
	{
		OFFSET 5.308129 -1.633274 1.361059 
		CHANNELS 3 Xrotation Zrotation Yrotation
		JOINT lShin
		{
			OFFSET -2.041588 -20.007561 0.000000 
			CHANNELS 3 Xrotation Zrotation Yrotation
			JOINT lFoot
			{
				OFFSET 0.000000 -19.190928 -1.224953 
				CHANNELS 3 Xrotation Yrotation Zrotation
				End Site
				{
					OFFSET 0.000000 -2.449906 4.627600 
				}
			}
		}
	}
	JOINT rThigh
	{
		OFFSET -5.308129 -1.633274 1.361059 
		CHANNELS 3 Xrotation Zrotation Yrotation
		JOINT rShin
		{
			OFFSET 2.041588 -20.007561 0.000000 
			CHANNELS 3 Xrotation Zrotation Yrotation
			JOINT rFoot
			{
				OFFSET 0.000000 -19.190928 -1.224953 
				CHANNELS 3 Xrotation Yrotation Zrotation
				End Site
				{
					OFFSET 0.000000 -2.449906 4.627600 
				}
			}
		}
	}
}
MOTION
Frames: 15
Frame Time: 0.011111
6.474298 52.803360 139.941071 -5.203425 -1.809713 12.462029 33.467987 0.804163 -13.373404 -35.725281 9.254716 -4.546281 6.340663 -9.121399 -23.339432 6.086316 14.789781 -45.722290 2.656661 -4.973740 1.830115 -68.098938 -7.658845 9.149220 -67.501244 9.372275 15.874075 8.524705 12.647240 -34.856827 -4.438679 -1.473473 2.444106 22.908077 43.953159 -86.223564 55.050827 -8.684906 10.251442 -8.534408 -12.637552 97.630714 0.215239 9.204020 -7.867389 26.205551 -5.517835 -4.373447 -19.220762 -1.466944 -3.270394 4.680632 -3.423207 -0.855307 25.653063 5.546129 4.251806 -31.535048 -14.375504 -5.849962 
6.523966 52.792019 139.910706 -5.102134 -1.477504 12.682289 33.525299 0.706579 -13.645984 -35.720947 9.153126 -4.590102 6.276111 -9.127877 -23.335367 6.108001 14.819398 -45.726578 2.656661 -4.973740 1.830115 -68.101234 -7.776011 9.139446 -67.627815 9.362752 15.927416 8.524705 12.647240 -35.052135 -4.438679 -1.473473 2.444106 22.954403 44.266125 -87.158463 55.262665 -8.718949 10.337817 -8.534408 -12.637552 96.644386 0.274066 8.785981 -7.882555 26.106062 -5.517586 -4.354930 -19.032139 -1.548297 -3.312804 4.553094 -3.900254 -1.481776 25.786671 5.525957 4.269569 -31.295767 -14.122778 -5.653668 
6.512316 52.782818 139.927582 -5.285862 -1.544783 12.579331 33.078278 0.578119 -13.707037 -33.677601 9.307953 -4.412005 6.044589 -8.943378 -23.255993 4.991081 15.112372 -45.705803 2.656661 -4.973740 1.830115 -68.190651 -9.327316 8.715791 -67.627815 9.362752 15.927416 8.524705 12.647240 -35.520885 -4.438679 -1.473473 2.444106 22.675489 45.220570 -87.892067 54.935356 -8.669990 10.205889 -8.534408 -12.637552 96.829941 0.469492 8.942373 -7.685063 26.088173 -5.503533 -4.369629 -19.041292 -1.625107 -3.346808 4.771849 -3.728027 -1.179138 25.778242 5.516375 4.276411 -31.529697 -14.170073 -5.752508 
6.503119 52.779140 139.918991 -5.335778 -1.630727 12.491595 33.809963 0.699812 -13.388562 -35.981945 9.232141 -4.556282 6.396718 -9.119840 -23.332163 6.177503 14.661404 -45.703220 2.656661 -4.973740 1.830115 -68.058777 -7.610780 9.187055 -67.923462 9.341593 16.067413 8.524705 12.647240 -35.647839 -4.438679 -1.473473 2.444106 22.937696 44.041340 -87.061852 55.114552 -8.696590 10.282347 -8.534408 -12.637552 96.517441 0.488818 9.059218 -7.707299 26.054722 -5.528059 -4.333425 -19.052614 -1.615168 -3.341265 4.822535 -3.592751 -0.886705 25.786646 5.526067 4.269592 -31.698559 -14.189444 -5.830704 
6.514156 52.791401 139.927582 -5.316605 -1.672942 12.504375 33.542137 0.650970 -13.284863 -36.215748 9.126106 -4.541329 7.049621 -8.944986 -23.354761 5.996397 14.532063 -45.670033 2.656661 -4.973740 1.830115 -67.879448 -6.959800 9.657907 -68.264336 9.322465 16.241072 8.524705 12.647240 -35.364632 -4.438679 -1.473473 2.444106 23.111721 44.209000 -88.970100 55.792038 -8.800201 10.569170 -8.534408 -12.637552 94.525246 0.449940 9.073022 -7.686801 26.087965 -5.507908 -4.351138 -19.041542 -1.551358 -3.314846 4.839329 -3.571500 -0.913522 25.727016 5.526025 4.254624 -31.704113 -14.226167 -5.860152 
6.515075 52.807655 139.918365 -5.335157 -1.695162 12.536832 33.763710 0.764168 -13.290367 -36.050140 9.200695 -4.550620 6.119777 -9.058336 -23.284460 6.829975 14.289912 -45.606983 2.656661 -4.973740 1.830115 -67.983513 -7.270364 9.623106 -68.431374 9.304210 16.309481 8.524705 12.647240 -35.315811 -4.438679 -1.473473 2.444106 22.973621 44.354206 -88.758995 55.496033 -8.757924 10.445660 -8.534408 -12.637552 95.101425 0.391436 9.103621 -7.783898 26.116091 -5.517372 -4.355758 -19.102026 -1.541485 -3.310928 4.817623 -3.549488 -0.843201 25.695759 5.530870 4.262706 -31.725611 -14.337610 -5.912045 
6.520287 52.792633 139.902130 -5.327053 -1.713343 12.469398 33.429237 0.776259 -13.499272 -33.662781 9.460752 -4.402109 4.972970 -8.951862 -23.045124 5.548870 14.521549 -45.401012 2.656661 -4.973740 1.830115 -68.281456 -9.452540 9.022867 -68.338257 9.316775 16.277763 8.524705 12.647240 -35.345108 -4.438679 -1.473473 2.444106 22.472275 45.970596 -90.112312 55.401066 -8.743980 10.402921 -8.534408 -12.637552 95.247902 0.342195 9.141958 -7.633565 26.087963 -5.507910 -4.351139 -19.097599 -1.728291 -3.364083 4.796937 -3.510058 -0.780809 25.706739 5.525893 4.262558 -31.771301 -14.215790 -5.876087 
6.544202 52.791096 139.882507 -5.230066 -1.650402 12.527408 33.752396 0.785018 -13.243715 -36.193775 9.068502 -4.533231 6.693761 -8.923750 -23.245899 5.848714 14.537694 -45.519867 2.656661 -4.973740 1.830115 -67.876106 -7.291956 9.688068 -68.570175 9.296362 16.382648 8.524705 12.647240 -35.403694 -4.438679 -1.473473 2.444106 23.318987 43.673740 -86.407661 55.210938 -8.716106 10.324480 -8.534408 -12.637552 97.484230 0.244397 9.020925 -7.789423 26.087965 -5.507912 -4.351138 -19.097378 -2.057153 -3.500578 4.718993 -3.665842 -1.046768 25.727242 5.521669 4.273135 -31.692268 -13.890717 -5.712199 
6.592643 52.813782 139.852753 -4.948006 -1.167071 12.697414 33.043064 0.383206 -13.916492 -34.089458 9.197772 -4.471265 6.075296 -8.939504 -23.037205 5.066061 14.961571 -45.268040 2.656661 -4.973740 1.830115 -68.005615 -8.901105 9.157992 -68.611465 9.290571 16.397171 8.524705 12.647240 -35.540417 -4.438679 -1.473473 2.444106 23.445433 44.788239 -86.114258 55.464790 -8.755144 10.434055 -8.534408 -12.637552 98.617043 0.117887 8.348220 -8.086181 26.087652 -5.507867 -4.360839 -19.039579 -2.694546 -3.703588 4.359666 -4.408515 -1.787253 25.737614 5.521354 4.264230 -31.243546 -13.791501 -5.480445 
6.577620 52.829117 139.873001 -5.153371 -1.425069 12.493526 33.500809 0.631372 -13.672165 -34.383148 9.392567 -4.486127 5.371040 -9.160730 -22.938684 5.750947 14.716442 -45.088875 2.656661 -4.973740 1.830115 -68.289841 -8.885864 8.922755 -68.738197 9.279961 16.460323 8.524705 12.647240 -35.725964 -4.438679 -1.473473 2.444106 23.210989 45.059593 -86.686142 55.485264 -8.754950 10.435892 -8.534408 -12.637552 97.923691 0.234760 8.704328 -7.946643 26.126066 -5.517435 -4.356646 -19.215691 -2.595930 -3.686212 4.530982 -4.023387 -1.258248 25.756721 5.525813 4.266913 -31.418724 -14.045730 -5.664852 
6.565050 52.803970 139.878204 -5.253167 -1.549110 12.303359 33.301430 0.529392 -13.454584 -34.574978 9.482959 -4.451529 6.420447 -9.247619 -22.976744 5.327789 14.934537 -45.039238 2.656661 -4.973740 1.830115 -68.231346 -8.408387 9.095603 -68.792717 9.279339 16.495628 8.524705 12.647240 -35.794323 -4.438679 -1.473473 2.444106 23.325266 45.089928 -87.620895 56.131241 -8.851109 10.721649 -8.534408 -12.637552 96.751816 0.303036 8.872510 -7.906824 26.195580 -5.517776 -4.372559 -19.393436 -1.878277 -3.404915 4.667335 -3.818044 -0.906529 25.727018 5.526009 4.254622 -31.619907 -14.039710 -5.728258 
6.579767 52.779755 139.866257 -5.225791 -1.599583 12.248046 33.437454 0.602965 -13.266436 -34.199398 9.494571 -4.376591 5.544429 -9.364202 -22.896687 5.707393 14.894232 -44.974304 2.656661 -4.973740 1.830115 -68.265450 -9.140290 9.069822 -68.707191 9.284914 16.456718 8.524705 12.647240 -35.774796 -4.438679 -1.473473 2.444106 23.087967 45.497948 -88.309959 56.035049 -8.833078 10.668839 -8.534408 -12.637552 96.615097 0.215566 8.907851 -7.835792 26.317141 -5.508621 -4.381118 -19.419683 -1.615868 -3.307236 4.732175 -3.786622 -0.940417 25.627192 5.525439 4.245755 -31.647039 -13.761336 -5.629985 
6.591111 52.793240 139.847549 -5.188547 -1.881069 12.261933 33.186546 0.892343 -12.975024 -34.244228 9.342463 -4.330528 6.377751 -9.393800 -22.974138 5.155805 15.244102 -45.042034 2.656661 -4.973740 1.830115 -68.116394 -9.045490 9.387492 -68.623299 9.292516 16.408916 8.524705 12.647240 -35.520885 -4.438679 -1.473473 2.444106 23.542858 44.584003 -85.077400 55.961647 -8.825989 10.645270 -8.534408 -12.637552 99.652199 0.000794 9.189692 -7.819895 26.377331 -5.508738 -4.377621 -19.357805 -1.635171 -3.316992 4.632150 -3.520596 -0.926583 25.604984 5.536549 4.245447 -31.463509 -13.929057 -5.618997 
6.607360 52.803055 139.844177 -5.217162 -1.865121 12.262004 33.134968 0.935731 -12.998609 -33.721390 9.401828 -4.290574 6.295201 -9.485141 -22.827150 4.534179 15.433695 -44.819965 2.656661 -4.973740 1.830115 -68.176056 -9.581553 9.263637 -68.453590 9.304686 16.320812 8.524705 12.647240 -35.462292 -4.438679 -1.473473 2.444106 23.327375 44.972752 -85.570122 55.877468 -8.815918 10.610431 -8.534408 -12.637552 99.456894 0.068980 9.149581 -7.910857 26.335613 -5.518086 -4.375172 -19.365601 -1.576282 -3.293799 4.635461 -3.562871 -0.891220 25.614660 5.536559 4.256037 -31.511187 -13.967979 -5.656439 
6.609812 52.802135 139.842346 -5.245836 -1.667080 12.215943 33.198349 0.688049 -13.123509 -33.544983 9.460762 -4.281278 6.060080 -9.390162 -22.657320 5.018058 15.280149 -44.468777 2.656661 -4.973740 1.830115 -68.082191 -9.798244 9.162903 -68.390015 9.309756 16.295000 8.524705 12.647240 -35.442764 -4.438679 -1.473473 2.444106 23.356401 45.099968 -85.646713 55.855759 -8.810789 10.600549 -8.534408 -12.637552 99.495956 0.283649 8.934235 -7.922931 26.235832 -5.517797 -4.366353 -19.429260 -1.543629 -3.276208 4.624976 -3.776624 -0.874484 25.654943 5.535103 4.260092 -31.473251 -14.014752 -5.661153 
